<?xml version="1.0" encoding="UTF-8" standalone="no"?>
<!-- Generator: Adobe Illustrator 17.0.0, SVG Export Plug-In . SVG Version: 6.00 Build 0)  -->
<!DOCTYPE svg  PUBLIC '-//W3C//DTD SVG 1.1//EN'  'http://www.w3.org/Graphics/SVG/1.1/DTD/svg11.dtd'>
<svg id="Layer_1" xmlns="http://www.w3.org/2000/svg" xml:space="preserve" height="801.52px" viewBox="0 0 938.952 801.517" width="938.95px" version="1.1" y="0px" x="0px" xmlns:xlink="http://www.w3.org/1999/xlink" enable-background="new 0 0 938.952 801.517">
	<g opacity=".4">
				<path d="m791.32 347.66l72.59 41.91v0.136l-0.236 83.276-72.591-41.91v-0.138l0.24-83.28zm72.11 42.18l-71.64-41.36-0.234 82.315 71.64 41.36 0.23-82.32z" fill="#DBD9D6"/>
				<path d="m863.2 306.16l0.119 0.07 72.472 41.84-72.121 41.912-0.118-0.068-72.472-41.841 72.12-41.91zm71.64 41.91l-71.641-41.361-71.17 41.361 71.64 41.362 71.17-41.36z" fill="#DBD9D6"/>
				<path d="m935.56 347.66l-0.236 83.416-0.118 0.068-72.004 41.845 0.236-83.415 0.119-0.07 72-41.85zm-0.71 83.14l0.232-82.314-71.169 41.359-0.233 82.314 71.17-41.36z" fill="#DBD9D6"/>
				<path d="m862.97 306.02l72.591 41.91-0.001 0.137-0.235 83.277-72.591-41.91 0.001-0.138 0.24-83.28zm72.11 42.19l-71.641-41.362-0.232 82.317 71.641 41.362 0.23-82.32z" fill="#DBD9D6"/>
				<path d="m862.97 389.02l0.119 0.07 72.471 41.84-72.12 41.912-0.119-0.069-72.471-41.841 72.12-41.91zm71.64 41.92l-71.641-41.36-71.172 41.358 71.641 41.362 71.17-41.36z" fill="#DBD9D6"/>
				<path d="m840.55 361.56l-0.237 83.416-0.117 0.068-72.005 41.846 0.236-83.416 0.117-0.07 72.01-41.85zm-0.71 83.14l0.232-82.314-71.17 41.358-0.231 82.316 71.17-41.37z" fill="#DBD9D6"/>
	</g>
	<g opacity=".4">
				<path d="m791.08 430.41l72.591 41.91v0.138l-0.236 83.275-72.59-41.91v-0.138l0.24-83.28zm72.12 42.18l-71.641-41.362-0.234 82.317 71.641 41.362 0.23-82.32z" fill="#DBD9D6"/>
				<path d="m862.97 388.91l0.12 0.068 72.47 41.842-72.12 41.912-0.119-0.07-72.471-41.84 72.12-41.91zm71.64 41.91l-71.641-41.36-71.17 41.36 71.64 41.362 71.17-41.36z" fill="#DBD9D6"/>
				<path d="m935.32 430.41l-0.235 83.416-0.118 0.068-72.005 41.845 0.236-83.418 0.117-0.068 72-41.84zm-0.71 83.14l0.233-82.314-71.169 41.359-0.234 82.313 71.17-41.36z" fill="#DBD9D6"/>
				<path d="m862.73 388.77l72.591 41.91-0.002 0.136-0.235 83.276-72.59-41.91 0.001-0.136 0.24-83.28zm72.11 42.19l-71.641-41.362-0.232 82.317 71.641 41.361 0.23-82.32z" fill="#DBD9D6"/>
				<path d="m863.2 388.77l-0.235 83.416-0.119 0.07-71.99 41.84 0.237-83.416 0.118-0.068 71.99-41.84zm-0.71 83.14l0.233-82.315-71.169 41.36-0.233 82.314 71.17-41.36z" fill="#DBD9D6"/>
				<path d="m862.73 471.78l0.119 0.07 72.47 41.84-72.12 41.912-0.119-0.068-72.47-41.841 72.12-41.91zm71.64 41.91l-71.64-41.362-71.173 41.36 71.641 41.362 71.17-41.36z" fill="#DBD9D6"/>
	</g>
	<g opacity=".4">
				<path d="m647.69 347.66l72.59 41.91v0.136l-0.235 83.276-72.59-41.91v-0.138l0.24-83.28zm72.11 42.18l-71.64-41.36-0.233 82.315 71.641 41.362 0.23-82.32z" fill="#DBD9D6"/>
				<path d="m719.57 306.16l0.119 0.07 72.471 41.84-72.12 41.912-0.118-0.068-72.471-41.841 72.12-41.91zm71.64 41.91l-71.64-41.361-71.174 41.361 71.64 41.362 71.17-41.36z" fill="#DBD9D6"/>
				<path d="m791.93 347.66l-0.236 83.416-0.118 0.068-72.004 41.845 0.236-83.415 0.117-0.07 72-41.85zm-0.71 83.14l0.233-82.314-71.171 41.359-0.232 82.314 71.17-41.36z" fill="#DBD9D6"/>
				<path d="m719.34 306.02l72.59 41.91v0.137l-0.236 83.277-72.59-41.91v-0.138l0.24-83.28zm72.11 42.19l-71.64-41.362-0.234 82.317 71.641 41.362 0.23-82.32z" fill="#DBD9D6"/>
				<path d="m719.81 306.02l-0.237 83.416-0.116 0.068-72.006 41.843 0.001-0.415 0.235-83.001 0.118-0.068 72.01-41.85zm-0.71 83.14l0.232-82.314-71.17 41.359-0.232 82.313 71.17-41.36z" fill="#DBD9D6"/>
				<path d="m719.34 389.02l0.12 0.07 72.471 41.84-72.12 41.912-0.119-0.069-72.471-41.841 72.12-41.91zm71.64 41.92l-71.64-41.36-71.173 41.358 71.641 41.362 71.17-41.36z" fill="#DBD9D6"/>
	</g>
	<g opacity=".4">
				<path d="m647.45 512.9l0.355 0.205 72.234 41.705-0.002 0.136-0.235 83.276-72.59-41.908 0.001-0.138 0.24-83.27zm72.11 42.18l-71.639-41.362-0.234 82.317 71.641 41.362 0.23-82.32z" fill="#3FAE2A"/>
				<path d="m719.34 471.4l0.119 0.07 72.471 41.84-72.119 41.912-0.121-0.068-72.47-41.841 72.12-41.91zm71.64 41.91l-71.641-41.361-71.172 41.361 71.641 41.36 71.17-41.36z" fill="#3FAE2A"/>
				<path d="m791.69 512.9l-0.236 83.416-0.118 0.07-72.004 41.843 0.236-83.416 0.117-0.068 72-41.84zm-0.71 83.14l0.233-82.315-71.17 41.36-0.231 82.313 71.17-41.35z" fill="#3FAE2A"/>
				<path d="m719.1 471.26l72.59 41.91v0.138l-0.235 83.275-72.591-41.91 0.001-0.139 0.23-83.27zm72.11 42.19l-71.641-41.362-0.233 82.317 71.64 41.362 0.23-82.32z" fill="#3FAE2A"/>
				<path d="m719.57 471.26l-0.236 83.416-0.118 0.068-72.005 41.845 0.002-0.414 0.235-83.001 0.118-0.07 72.01-41.86zm-0.71 83.14l0.233-82.314-71.17 41.359-0.233 82.315 71.17-41.36z" fill="#3FAE2A"/>
				<path d="m719.1 554.26l0.119 0.07 72.471 41.842-72.12 41.912-0.12-0.07-72.47-41.84 72.12-41.91zm71.64 41.92l-71.641-41.36-71.172 41.36 71.641 41.36 71.17-41.36z" fill="#3FAE2A"/>
	</g>
	<g opacity=".4">
				<path d="m504.06 347.66l72.59 41.91v0.136l-0.236 83.276-0.355-0.205-72.234-41.705 0.002-0.138 0.23-83.28zm72.11 42.18l-71.64-41.36-0.233 82.315 71.64 41.362 0.23-82.32z" fill="#DBD9D6"/>
				<path d="m575.94 306.16l0.119 0.07 72.47 41.84-72.12 41.912-0.118-0.068-72.47-41.841 72.12-41.91zm71.64 41.91l-71.64-41.361-71.17 41.36 71.64 41.362 71.17-41.36z" fill="#DBD9D6"/>
				<path d="m648.29 347.66v0.413l-0.235 83.002-0.118 0.068-72.005 41.845 0.002-0.415 0.234-83 0.119-0.07 72-41.83zm-0.71 83.14l0.233-82.314-71.17 41.359-0.233 82.314 71.17-41.36z" fill="#DBD9D6"/>
				<path d="m575.7 306.02l0.355 0.207 72.234 41.704v0.137l-0.235 83.277-72.591-41.91v-0.138l0.23-83.28zm72.12 42.19l-71.64-41.362-0.233 82.317 71.64 41.362 0.23-82.32z" fill="#DBD9D6"/>
				<path d="m576.18 306.02l-0.002 0.413-0.234 83.003-0.119 0.068-72.004 41.843 0.002-0.415 0.234-83.001 0.117-0.068 72-41.83zm-0.71 83.14l0.234-82.314-71.17 41.359-0.232 82.313 71.17-41.36z" fill="#DBD9D6"/>
				<path d="m575.71 389.02l0.119 0.07 72.471 41.84-72.12 41.912-0.12-0.069-72.47-41.841 72.12-41.91zm71.64 41.92l-71.641-41.36-71.172 41.358 71.64 41.362 71.17-41.36z" fill="#DBD9D6"/>
	</g>
	<g opacity=".4">
				<path d="m503.82 430.41l72.59 41.91v0.138l-0.235 83.275-0.357-0.205-72.234-41.705 0.001-0.138 0.23-83.29zm72.12 42.18l-71.641-41.362-0.232 82.317 71.639 41.362 0.23-82.32z" fill="#00A5B5"/>
				<path d="m575.7 388.91l0.119 0.068 72.471 41.842-72.12 41.912-0.12-0.07-72.471-41.84 72.12-41.91zm71.64 41.91l-71.641-41.36-71.172 41.36 71.64 41.362 71.17-41.36z" fill="#00A5B5"/>
				<path d="m648.06 430.41l-0.002 0.413-0.234 83.003-0.118 0.068-72.005 41.845 0.001-0.415 0.235-83.003 0.118-0.068 72-41.84zm-0.71 83.14l0.232-82.314-71.17 41.359-0.233 82.313 71.17-41.36z" fill="#00A5B5"/>
				<path d="m575.47 388.77l0.355 0.204 72.234 41.706-0.001 0.136-0.235 83.276-72.59-41.91v-0.136l0.24-83.28zm72.11 42.19l-71.639-41.362-0.234 82.317 71.641 41.361 0.23-82.32z" fill="#00A5B5"/>
				<path d="m575.47 471.78l0.12 0.07 72.47 41.84-72.119 41.912-0.12-0.068-72.47-41.841 72.12-41.91zm71.64 41.91l-71.641-41.362-71.172 41.36 71.64 41.362 71.17-41.36z" fill="#00A5B5"/>
				<path d="m596.71 406.87l-0.002 0.415-0.234 83.001-0.118 0.07-72.005 41.845 0.001-0.415 0.235-83.003 0.117-0.068 71.99-41.84zm-0.71 83.15l0.233-82.315-71.17 41.36-0.232 82.314 71.17-41.35z" fill="#00A5B5"/>
	</g>
	<g opacity=".4">
				<path d="m503.82 512.9l72.59 41.91v0.136l-0.235 83.276-0.357-0.205-72.234-41.704 0.001-0.138 0.23-83.28zm72.12 42.18l-71.641-41.362-0.232 82.317 71.639 41.362 0.23-82.32z" fill="#DBD9D6"/>
				<path d="m575.7 471.4l0.119 0.07 72.471 41.84-72.12 41.912-0.12-0.068-72.471-41.841 72.12-41.91zm71.64 41.91l-71.641-41.361-71.172 41.361 71.64 41.36 71.17-41.36z" fill="#DBD9D6"/>
				<path d="m648.06 512.9l-0.002 0.415-0.234 83-0.118 0.07-72.005 41.843 0.001-0.415 0.235-83.001 0.118-0.068 72-41.85zm-0.71 83.14l0.232-82.315-71.17 41.36-0.233 82.313 71.17-41.35z" fill="#DBD9D6"/>
				<path d="m575.47 471.26l0.355 0.206 72.234 41.704-0.001 0.138-0.235 83.275-72.59-41.91v-0.139l0.24-83.27zm72.11 42.19l-71.639-41.362-0.234 82.317 71.641 41.362 0.23-82.32z" fill="#DBD9D6"/>
				<path d="m575.94 471.26l-0.002 0.415-0.236 83.001-0.117 0.068-72.004 41.845 0.001-0.414 0.235-83.001 0.117-0.07 72-41.86zm-0.71 83.14l0.234-82.314-71.17 41.359-0.233 82.315 71.17-41.36z" fill="#DBD9D6"/>
				<path d="m575.47 554.26l0.12 0.07 72.47 41.842-72.119 41.912-0.12-0.07-72.47-41.84 72.12-41.91zm71.64 41.92l-71.641-41.36-71.172 41.36 71.64 41.36 71.17-41.36z" fill="#DBD9D6"/>
	</g>
	<g opacity=".4">
				<path d="m360.43 347.66l72.589 41.91-0.002 0.136-0.235 83.276-0.354-0.205-72.234-41.705v-0.138l0.23-83.28zm72.11 42.18l-71.641-41.36-0.232 82.315 71.64 41.362 0.23-82.32z" fill="#DBD9D6"/>
				<path d="m432.31 306.16l0.12 0.07 72.47 41.84-72.12 41.912-0.119-0.068-72.471-41.841 72.12-41.91zm71.64 41.91l-71.64-41.361-71.173 41.361 71.641 41.362 71.17-41.36z" fill="#DBD9D6"/>
				<path d="m504.66 347.66l-0.001 0.413-0.235 83.002-0.117 0.068-72.007 41.845 0.002-0.415 0.236-83 0.117-0.07 72.01-41.83zm-0.71 83.14l0.232-82.314-71.17 41.359-0.232 82.314 71.17-41.36z" fill="#DBD9D6"/>
				<path d="m432.07 306.02l0.356 0.207 72.232 41.704v0.137l-0.235 83.277-72.59-41.91v-0.138l0.24-83.28zm72.12 42.19l-71.639-41.362-0.233 82.317 71.64 41.362 0.23-82.32z" fill="#DBD9D6"/>
				<path d="m432.55 306.02l-0.001 0.413-0.237 83.003-0.116 0.068-72.006 41.843 0.001-0.415 0.236-83.001 0.117-0.068 72.01-41.83zm-0.71 83.14l0.232-82.314-71.17 41.359-0.232 82.313 71.17-41.36z" fill="#DBD9D6"/>
				<path d="m432.08 389.02l0.119 0.07 72.47 41.84-72.121 41.912-0.118-0.069-72.471-41.841 72.12-41.91zm71.64 41.92l-71.64-41.36-71.174 41.358 71.64 41.362 71.17-41.36z" fill="#DBD9D6"/>
	</g>
	<g opacity=".4">
				<path d="m360.19 430.41l72.591 41.91-0.001 0.138-0.237 83.275-0.354-0.205-72.234-41.705v-0.138l0.23-83.29zm72.11 42.18l-71.64-41.362-0.232 82.317 71.641 41.362 0.23-82.32z" fill="#DBD9D6"/>
				<path d="m432.07 388.91l0.119 0.068 72.47 41.842-72.119 41.912-0.119-0.07-72.472-41.84 72.12-41.91zm71.64 41.91l-71.639-41.36-71.174 41.36 71.64 41.362 71.17-41.36z" fill="#DBD9D6"/>
				<path d="m504.43 430.41l-0.001 0.413-0.235 83.003-0.117 0.068-72.005 41.845 0.001-0.415 0.235-83.003 0.118-0.068 71.99-41.84zm-0.71 83.14l0.231-82.314-71.169 41.359-0.232 82.313 71.17-41.36z" fill="#DBD9D6"/>
				<path d="m431.84 388.77l0.355 0.204 72.234 41.706-0.001 0.136-0.235 83.276-0.355-0.205-72.234-41.705v-0.136l0.23-83.29zm72.11 42.19l-71.64-41.362-0.233 82.317 71.64 41.361 0.23-82.32z" fill="#DBD9D6"/>
				<path d="m431.84 471.78l0.118 0.07 72.472 41.84-72.12 41.912-0.12-0.068-72.47-41.841 72.12-41.91zm71.64 41.91l-71.641-41.362-71.172 41.36 71.64 41.362 71.17-41.36z" fill="#DBD9D6"/>
				<path d="m465.32 432.43v0.415l-0.236 83.001-0.117 0.07-72.006 41.844 0.002-0.415 0.235-83.001 0.117-0.068 72.02-41.84zm-0.71 83.14l0.233-82.315-71.17 41.36-0.233 82.313 71.17-41.36z" fill="#DBD9D6"/>
	</g>
	<g opacity=".4">
				<path d="m359.95 595.65l72.59 41.91-0.001 0.136-0.236 83.276-0.355-0.205-72.233-41.705 0.001-0.136 0.24-83.29zm72.12 42.18l-71.64-41.361-0.233 82.317 71.641 41.36 0.23-82.32z" fill="#DBD9D6"/>
				<path d="m431.84 554.15l0.119 0.07 72.471 41.84-72.12 41.912-0.12-0.068-72.47-41.842 72.12-41.91zm71.64 41.91l-71.64-41.36-71.174 41.36 71.64 41.361 71.17-41.36z" fill="#DBD9D6"/>
				<path d="m504.19 595.65l-0.001 0.415-0.236 83.001-0.117 0.068-72.006 41.845 0.002-0.414 0.236-83.001 0.117-0.068 72.01-41.85zm-0.71 83.14l0.232-82.316-71.17 41.359-0.232 82.315 71.17-41.35z" fill="#DBD9D6"/>
				<path d="m431.6 554.01l0.355 0.207 72.234 41.703v0.138l-0.237 83.276-0.355-0.207-72.233-41.703v-0.138l0.23-83.28zm72.11 42.19l-71.639-41.362-0.235 82.317 71.641 41.362 0.23-82.32z" fill="#DBD9D6"/>
				<path d="m432.08 554.01l-0.002 0.414-0.235 83.002-0.118 0.068-72.005 41.845 0.002-0.415 0.233-83.001 0.119-0.07 72.01-41.84zm-0.72 83.14l0.234-82.314-71.17 41.359-0.233 82.315 71.17-41.37z" fill="#DBD9D6"/>
				<path d="m431.6 637.02l0.12 0.07 72.47 41.842-72.12 41.91-0.12-0.068-72.469-41.841 72.12-41.91zm71.64 41.91l-71.64-41.36-71.172 41.36 71.641 41.36 71.17-41.36z" fill="#DBD9D6"/>
	</g>
	<g opacity=".4">
				<path d="m216.52 347.66l72.59 41.91-0.001 0.136-0.236 83.276-0.355-0.205-72.232-41.705v-0.138l0.23-83.28zm72.11 42.18l-71.641-41.36-0.231 82.315 71.64 41.362 0.23-82.32z" fill="#8547AD"/>
				<path d="m288.4 306.16l0.12 0.07 72.47 41.84-72.12 41.912-0.12-0.068-72.47-41.841 72.12-41.91zm71.64 41.91l-71.641-41.361-71.173 41.361 71.641 41.362 71.17-41.36z" fill="#8547AD"/>
				<path d="m360.75 347.66l-0.002 0.413-0.235 83.002-0.118 0.068-72.006 41.845 0.002-0.415 0.236-83 0.117-0.07 72-41.83zm-0.71 83.14l0.233-82.314-71.17 41.359-0.233 82.314 71.17-41.36z" fill="#8547AD"/>
				<path d="m288.16 306.02l0.357 0.207 72.233 41.704v0.137l-0.236 83.277-0.355-0.206-72.234-41.704v-0.138l0.23-83.28zm72.12 42.19l-71.64-41.362-0.235 82.317 71.642 41.362 0.24-82.32z" fill="#8547AD"/>
				<path d="m288.64 306.02l-0.001 0.413-0.235 83.003-0.118 0.068-72.004 41.843 0.001-0.415 0.235-83.001 0.118-0.068 72-41.83zm-0.71 83.14l0.233-82.314-71.17 41.359-0.232 82.313 71.17-41.36z" fill="#8547AD"/>
				<path d="m288.16 389.02l0.12 0.07 72.471 41.84-72.121 41.912-0.12-0.069-72.469-41.841 72.12-41.91zm71.64 41.92l-71.641-41.36-71.172 41.358 71.641 41.362 71.17-41.36z" fill="#8547AD"/>
	</g>
	<g opacity=".4">
				<path d="m216.28 512.9l0.355 0.205 72.234 41.705-0.002 0.136-0.235 83.276-0.355-0.205-72.233-41.704v-0.138l0.23-83.28zm72.11 42.18l-71.641-41.362-0.232 82.317 71.641 41.362 0.23-82.32z" fill="#DBD9D6"/>
				<path d="m288.16 471.4l0.12 0.07 72.471 41.84-72.12 41.912-0.12-0.068-72.47-41.841 72.12-41.91zm71.64 41.91l-71.64-41.361-71.173 41.361 71.641 41.36 71.17-41.36z" fill="#DBD9D6"/>
				<path d="m360.52 512.9l-0.002 0.415-0.234 83-0.119 0.07-72.005 41.843 0.001-0.415 0.235-83.001 0.118-0.068 72-41.85zm-0.72 83.14l0.233-82.315-71.17 41.36-0.231 82.313 71.17-41.35z" fill="#DBD9D6"/>
				<path d="m287.92 471.26l0.355 0.206 72.234 41.704v0.138l-0.236 83.275-72.59-41.91v-0.139l0.24-83.27zm72.12 42.19l-71.642-41.362-0.233 82.317 71.642 41.362 0.23-82.32z" fill="#DBD9D6"/>
				<path d="m288.4 471.26l-0.002 0.415-0.234 83.001-0.118 0.068-72.005 41.845 0.002-0.414 0.234-83.001 0.119-0.07 72.01-41.86zm-0.71 83.14l0.233-82.314-71.17 41.359-0.232 82.315 71.17-41.36z" fill="#DBD9D6"/>
				<path d="m287.93 554.26l0.119 0.07 72.471 41.842-72.121 41.912-0.119-0.07-72.47-41.84 72.12-41.91zm71.64 41.92l-71.642-41.36-71.172 41.36 71.641 41.36 71.17-41.36z" fill="#DBD9D6"/>
	</g>
	<g opacity=".4">
				<path d="m216.04 595.65l72.59 41.91v0.136l-0.236 83.276-0.355-0.205-72.233-41.705v-0.136l0.23-83.29zm72.12 42.18l-71.642-41.361-0.231 82.317 71.639 41.36 0.23-82.32z" fill="#00A5B5"/>
				<path d="m287.92 554.15l0.119 0.07 72.471 41.84-72.121 41.912-0.119-0.068-72.47-41.842 72.12-41.91zm71.65 41.91l-71.641-41.36-71.173 41.36 71.641 41.361 71.17-41.36z" fill="#00A5B5"/>
				<path d="m360.28 595.65l-0.002 0.415-0.236 83.001-0.116 0.068-72.007 41.845 0.002-0.414 0.236-83.001 0.117-0.068 72.01-41.85zm-0.71 83.14l0.232-82.316-71.169 41.359-0.234 82.315 71.17-41.35z" fill="#00A5B5"/>
				<path d="m287.69 554.01l0.355 0.207 72.234 41.703v0.138l-0.236 83.276-0.355-0.207-72.234-41.703v-0.138l0.24-83.28zm72.11 42.19l-71.64-41.362-0.233 82.317 71.64 41.362 0.23-82.32z" fill="#00A5B5"/>
				<path d="m287.69 637.02l0.119 0.07 72.472 41.842-72.121 41.91-0.119-0.068-72.469-41.841 72.12-41.91zm71.64 41.91l-71.64-41.36-71.172 41.36 71.641 41.36 71.17-41.36z" fill="#00A5B5"/>
				<path d="m326.5 506.09l-0.002 0.415-0.234 83.003-0.118 0.068-72.004 41.843 0.002-0.415 0.233-83.001 0.118-0.068 72-41.84zm-0.71 83.15l0.232-82.314-71.169 41.359-0.232 82.313 71.17-41.36z" fill="#00A5B5"/>
	</g>
	<g opacity=".4">
				<path d="m72.884 347.66l72.59 41.91v0.136l-0.236 83.276-0.355-0.205-72.234-41.705 0.002-0.138 0.236-83.28zm72.116 42.18l-71.641-41.36-0.232 82.315 71.639 41.362 0.23-82.32z" fill="#DBD9D6"/>
				<path d="m144.77 306.16l0.119 0.07 72.47 41.84-72.12 41.912-0.119-0.068-72.471-41.841 72.121-41.91zm71.64 41.91l-71.641-41.361-71.175 41.36 71.641 41.362 71.17-41.36z" fill="#DBD9D6"/>
				<path d="m217.12 347.66l-0.002 0.413-0.234 83.002-0.118 0.068-72.005 41.845 0.002-0.415 0.234-83 0.118-0.07 72.01-41.83zm-0.71 83.14l0.232-82.314-71.17 41.359-0.233 82.314 71.17-41.36z" fill="#DBD9D6"/>
				<path d="m144.53 306.02l0.355 0.207 72.234 41.704-0.001 0.137-0.234 83.277-72.592-41.91 0.002-0.138 0.24-83.28zm72.11 42.19l-71.641-41.362-0.232 82.317 71.641 41.362 0.23-82.32z" fill="#DBD9D6"/>
				<path d="m145.01 306.02l-0.001 0.413-0.235 83.003-0.118 0.068-72.004 41.843 0.002-0.415 0.234-83.001 0.117-0.068 72.001-41.83zm-0.71 83.14l0.233-82.314-71.17 41.359-0.233 82.313 71.173-41.36z" fill="#DBD9D6"/>
				<path d="m144.53 389.02l0.12 0.07 72.471 41.84-72.12 41.912-0.12-0.069-72.47-41.841 72.12-41.91zm71.64 41.92l-71.641-41.36-71.171 41.358 71.641 41.36 71.17-41.36z" fill="#DBD9D6"/>
	</g>
	<g opacity=".4">
				<path d="m72.647 430.41l72.59 41.91v0.138l-0.235 83.275-0.357-0.205-72.233-41.705 0.001-0.138 0.239-83.29zm72.113 42.18l-71.64-41.36-0.231 82.317 71.64 41.362 0.23-82.32z" fill="#DBD9D6"/>
				<path d="m144.53 388.91l0.12 0.068 72.469 41.842-72.12 41.91-0.12-0.07-72.471-41.84 72.121-41.91zm71.64 41.91l-71.641-41.36-71.172 41.36 71.641 41.362 71.17-41.36z" fill="#DBD9D6"/>
				<path d="m216.88 430.41l-0.002 0.413-0.234 83.003-0.118 0.068-72.005 41.845 0.001-0.415 0.235-83.003 0.118-0.068 72-41.84zm-0.71 83.14l0.233-82.314-71.17 41.359-0.233 82.313 71.17-41.36z" fill="#DBD9D6"/>
				<path d="m144.3 388.77l0.355 0.204 72.233 41.706-0.001 0.136-0.235 83.276-72.59-41.91 0.001-0.136 0.23-83.28zm72.11 42.19l-71.641-41.362-0.232 82.317 71.641 41.361 0.23-82.32z" fill="#DBD9D6"/>
				<path d="m144.77 388.77l-0.002 0.414-0.236 83.002-0.117 0.07-71.999 41.85 0.001-0.415 0.234-83.001 0.118-0.068 72.006-41.84zm-0.71 83.14l0.233-82.315-71.17 41.36-0.233 82.314 71.173-41.36z" fill="#DBD9D6"/>
				<path d="m144.3 471.78l0.12 0.07 72.47 41.84-72.12 41.912-0.12-0.068-72.469-41.841 72.119-41.91zm71.64 41.91l-71.641-41.362-71.172 41.36 71.64 41.362 71.17-41.36z" fill="#DBD9D6"/>
	</g>
	<g opacity=".4">
				<path d="m72.647 512.9l72.59 41.91v0.136l-0.235 83.276-0.357-0.205-72.233-41.704 0.001-0.138 0.239-83.28zm72.113 42.18l-71.64-41.36-0.231 82.317 71.64 41.362 0.23-82.32z" fill="#DBD9D6"/>
				<path d="m144.53 471.4l0.12 0.07 72.469 41.84-72.12 41.91-0.12-0.068-72.471-41.841 72.121-41.91zm71.64 41.91l-71.64-41.36-71.172 41.361 71.641 41.36 71.17-41.36z" fill="#DBD9D6"/>
				<path d="m216.88 512.9l-0.002 0.415-0.234 83-0.118 0.07-72.005 41.843 0.001-0.415 0.235-83.001 0.118-0.068 72-41.85zm-0.71 83.14l0.233-82.315-71.17 41.36-0.233 82.313 71.17-41.35z" fill="#DBD9D6"/>
				<path d="m178.37 441.98l0.355 0.205 72.234 41.706-0.001 0.136-0.235 83.276-72.591-41.91 0.002-0.136 0.24-83.28zm72.11 42.18l-71.641-41.36-0.232 82.315 71.641 41.362 0.23-82.32z" fill="#DBD9D6"/>
				<path d="m144.77 471.26l-0.002 0.415-0.236 83.001-0.117 0.068-71.999 41.84 0.001-0.414 0.234-83.001 0.118-0.07 72.006-41.85zm-0.71 83.14l0.233-82.314-71.17 41.359-0.233 82.315 71.173-41.36z" fill="#DBD9D6"/>
				<path d="m144.3 554.26l0.12 0.07 72.47 41.842-72.12 41.912-0.12-0.07-72.469-41.84 72.119-41.91zm71.64 41.92l-71.641-41.36-71.172 41.36 71.64 41.36 71.17-41.36z" fill="#DBD9D6"/>
	</g>
	<g opacity=".4">
				<path d="m719.55 223.58l-0.001-0.137 72.59-41.91 0.236 83.276v0.137l-72.589 41.91-0.24-83.28zm72.12-41.22l-71.641 41.361 0.234 82.316 71.64-41.361-0.23-82.32z" fill="#8547AD"/>
				<path d="m719.55 306.45l72.47-41.842 0.119-0.068 72.122 41.912-72.472 41.84-0.119 0.069-72.12-41.91zm72.59-41.36l-71.641 41.361 71.173 41.361 71.641-41.361-71.17-41.36z" fill="#8547AD"/>
				<path d="m792.02 265.02l-0.117-0.069-0.237-83.415 72.005 41.844 0.118 0.068 0.236 83.417-72-41.85zm0.12-82.66l0.233 82.313 71.17 41.36-0.232-82.315-71.17-41.36z" fill="#8547AD"/>
				<path d="m791.2 265.22l-0.001-0.137 72.59-41.91 0.236 83.276 0.001 0.138-72.591 41.909-0.24-83.28zm72.11-41.22l-71.641 41.361 0.232 82.317 71.641-41.361-0.23-82.32z" fill="#8547AD"/>
				<path d="m719.31 223.58l72.471-41.841 0.12-0.069 72.12 41.911-72.471 41.842-0.12 0.069-72.12-41.91zm72.59-41.36l-71.641 41.361 71.172 41.36 71.641-41.361-71.17-41.36z" fill="#8547AD"/>
				<path d="m697.01 251.12l-0.118-0.069-0.236-83.416 72.005 41.844 0.117 0.068 0.237 83.417-72.01-41.84zm0.13-82.66l0.231 82.314 71.171 41.359-0.233-82.314-71.17-41.36z" fill="#8547AD"/>
	</g>
	<g opacity=".4">
				<path d="m719.31 140.84v-0.138l72.591-41.909 0.235 83.275v0.138l-72.59 41.91-0.24-83.28zm72.12-41.231l-71.641 41.362 0.234 82.317 71.64-41.362-0.23-82.321z" fill="#DBD9D6"/>
				<path d="m719.31 223.7l72.471-41.84 0.12-0.069 72.121 41.911-72.471 41.841-0.12 0.069-72.12-41.91zm72.59-41.36l-71.64 41.361 71.17 41.361 71.641-41.361-71.17-41.36z" fill="#DBD9D6"/>
				<path d="m791.78 182.27l-0.118-0.068-0.236-83.416 72.005 41.845 0.119 0.068 0.235 83.416-72-41.85zm0.12-82.657l0.234 82.314 71.17 41.359-0.234-82.314-71.17-41.367z" fill="#DBD9D6"/>
				<path d="m790.96 182.47l-0.001-0.137 72.59-41.91 0.235 83.275 0.001 0.138-72.59 41.91-0.23-83.28zm72.12-41.22l-71.641 41.361 0.232 82.317 71.641-41.362-0.23-82.32z" fill="#DBD9D6"/>
				<path d="m719.67 223.9l-0.117-0.069-0.237-83.415 72.005 41.844 0.118 0.069 0.236 83.415-72.01-41.84zm0.12-82.65l0.233 82.314 71.17 41.359-0.233-82.314-71.17-41.36z" fill="#DBD9D6"/>
				<path d="m719.08 140.83l72.471-41.842 0.119-0.069 72.12 41.912-72.47 41.842-0.12 0.069-72.12-41.91zm72.59-41.356l-71.64 41.361 71.173 41.36 71.64-41.361-71.17-41.366z" fill="#DBD9D6"/>
	</g>
	<g opacity=".4">
				<path d="m575.92 223.58v-0.137l72.59-41.91 0.235 83.276 0.001 0.137-72.591 41.91-0.23-83.28zm72.12-41.22l-71.641 41.361 0.233 82.316 71.64-41.361-0.23-82.32z" fill="#DBD9D6"/>
				<path d="m575.92 306.45l72.471-41.842 0.118-0.068 72.119 41.912-72.47 41.84-0.119 0.069-72.12-41.91zm72.59-41.36l-71.641 41.361 71.174 41.361 71.64-41.361-71.17-41.36z" fill="#DBD9D6"/>
				<path d="m648.39 265.02l-0.117-0.069-0.236-83.415 72.003 41.844 0.119 0.068 0.236 83.417-72-41.85zm0.12-82.66l0.233 82.313 71.169 41.36-0.233-82.315-71.17-41.36z" fill="#DBD9D6"/>
				<path d="m647.56 265.22l-0.001-0.137 72.591-41.91 0.236 83.276v0.138l-72.59 41.909-0.24-83.28zm72.12-41.22l-71.641 41.361 0.233 82.317 71.641-41.361-0.23-82.32z" fill="#DBD9D6"/>
				<path d="m576.27 306.66l-0.118-0.068-0.235-83.001-0.001-0.414 72.005 41.844 0.116 0.069 0.236 83.416-72.01-41.85zm0.13-82.66l0.232 82.314 71.17 41.359-0.233-82.314-71.17-41.36z" fill="#DBD9D6"/>
				<path d="m575.68 223.58l72.47-41.841 0.119-0.069 72.12 41.911-72.47 41.842-0.12 0.069-72.12-41.91zm72.59-41.36l-71.641 41.361 71.173 41.36 71.641-41.361-71.17-41.36z" fill="#DBD9D6"/>
	</g>
	<g opacity=".4">
				<path d="m432.29 223.58l-0.002-0.137 72.234-41.705 0.355-0.206 0.235 83.276v0.137l-72.589 41.91-0.24-83.28zm72.11-41.22l-71.641 41.361 0.233 82.316 71.64-41.361-0.23-82.32z" fill="#DBD9D6"/>
				<path d="m432.29 306.45l72.469-41.842 0.119-0.068 72.121 41.912-72.471 41.84-0.119 0.069-72.12-41.91zm72.59-41.36l-71.64 41.361 71.172 41.361 71.641-41.361-71.17-41.36z" fill="#DBD9D6"/>
				<path d="m504.76 265.02l-0.118-0.069-0.235-83.001-0.002-0.415 72.006 41.844 0.118 0.068 0.234 83.003 0.001 0.414-72-41.84zm0.12-82.66l0.232 82.313 71.17 41.36-0.232-82.315-71.17-41.36z" fill="#DBD9D6"/>
				<path d="m503.94 265.22v-0.137l72.591-41.91 0.234 83.276v0.138l-72.233 41.704-0.355 0.205-0.24-83.28zm72.11-41.22l-71.64 41.361 0.233 82.317 71.639-41.361-0.23-82.32z" fill="#DBD9D6"/>
				<path d="m432.64 306.66l-0.117-0.068-0.234-83.001-0.002-0.414 72.004 41.844 0.117 0.069 0.236 83.001 0.002 0.415-72.01-41.84zm0.13-82.66l0.233 82.314 71.17 41.359-0.234-82.314-71.17-41.36z" fill="#DBD9D6"/>
				<path d="m432.05 223.58l72.47-41.841 0.119-0.069 72.12 41.911-72.47 41.842-0.119 0.069-72.12-41.91zm72.59-41.36l-71.64 41.361 71.172 41.36 71.641-41.361-71.17-41.36z" fill="#DBD9D6"/>
	</g>
	<g opacity=".4">
				<path d="m288.66 223.58v-0.137l72.234-41.705 0.354-0.206 0.235 83.276 0.002 0.137-72.589 41.91-0.23-83.28zm72.11-41.22l-71.64 41.361 0.232 82.316 71.641-41.361-0.23-82.32z" fill="#DBD9D6"/>
				<path d="m288.66 306.45l72.47-41.842 0.12-0.068 72.12 41.912-72.471 41.84-0.119 0.069-72.12-41.91zm72.58-41.36l-71.641 41.361 71.173 41.361 71.64-41.361-71.17-41.36z" fill="#DBD9D6"/>
				<path d="m361.12 265.02l-0.117-0.069-0.236-83.001-0.002-0.415 72.007 41.844 0.117 0.068 0.236 83.003v0.414l-72.01-41.84zm0.13-82.66l0.232 82.313 71.17 41.36-0.232-82.315-71.17-41.36z" fill="#DBD9D6"/>
				<path d="m360.3 265.22v-0.137l72.589-41.91 0.237 83.276v0.138l-72.234 41.704-0.355 0.205-0.24-83.28zm72.12-41.22l-71.64 41.361 0.233 82.317 71.64-41.361-0.23-82.32z" fill="#DBD9D6"/>
				<path d="m289.01 306.66l-0.118-0.068-0.235-83.001-0.001-0.414 72.005 41.844 0.118 0.069 0.236 83.001 0.001 0.415-72.01-41.84zm0.13-82.66l0.232 82.314 71.17 41.359-0.232-82.314-71.17-41.36z" fill="#DBD9D6"/>
				<path d="m288.42 223.58l72.471-41.841 0.118-0.069 72.121 41.911-72.47 41.842-0.12 0.069-72.12-41.91zm72.59-41.36l-71.64 41.361 71.172 41.36 71.641-41.361-71.17-41.36z" fill="#DBD9D6"/>
	</g>
	<g opacity=".3">
				<path d="m288.42 140.84v-0.138l72.234-41.705 0.354-0.205 0.236 83.275 0.002 0.138-72.591 41.91-0.23-83.27zm72.12-41.231l-71.641 41.362 0.232 82.317 71.64-41.362-0.23-82.321z" fill="#3FAE2A"/>
				<path d="m288.42 223.7l72.471-41.84 0.12-0.069 72.12 41.911-72.471 41.841-0.119 0.069-72.12-41.91zm72.59-41.36l-71.64 41.361 71.173 41.361 71.64-41.36-71.17-41.36z" fill="#3FAE2A"/>
				<path d="m360.89 182.27l-0.118-0.068-0.235-83.002-0.002-0.415 72.006 41.845 0.117 0.068 0.234 83.002 0.002 0.414-72.01-41.84zm0.12-82.657l0.232 82.314 71.169 41.359-0.232-82.314-71.17-41.367z" fill="#3FAE2A"/>
				<path d="m360.07 182.47v-0.137l72.234-41.705 0.355-0.205 0.234 83.275 0.001 0.138-72.233 41.704-0.355 0.206-0.23-83.28zm72.11-41.22l-71.639 41.361 0.233 82.317 71.639-41.362-0.23-82.32z" fill="#3FAE2A"/>
				<path d="m288.19 140.83l72.47-41.842 0.119-0.069 72.12 41.912-72.471 41.842-0.118 0.069-72.12-41.91zm72.58-41.356l-71.64 41.361 71.172 41.36 71.641-41.361-71.17-41.366z" fill="#3FAE2A"/>
				<path d="m321.78 180.25l-0.117-0.068-0.235-83.002-0.002-0.414 72.006 41.845 0.117 0.068 0.236 83.002v0.414l-72.01-41.84zm0.13-82.659l0.233 82.314 71.17 41.359-0.233-82.314-71.17-41.359z" fill="#3FAE2A"/>
	</g>
	<g opacity=".4">
				<path d="m144.75 223.58v-0.137l72.232-41.705 0.355-0.206 0.236 83.276 0.001 0.137-72.59 41.91-0.24-83.28zm72.11-41.22l-71.64 41.361 0.233 82.316 71.639-41.361-0.23-82.32z" fill="#DBD9D6"/>
				<path d="m144.74 306.45l72.47-41.842 0.12-0.068 72.12 41.912-72.47 41.84-0.12 0.069-72.12-41.91zm72.59-41.36l-71.64 41.361 71.173 41.361 71.641-41.361-71.17-41.36z" fill="#DBD9D6"/>
				<path d="m217.21 265.02l-0.117-0.069-0.236-83.001-0.002-0.415 72.006 41.844 0.118 0.068 0.235 83.003 0.002 0.414-72.01-41.84zm0.13-82.66l0.232 82.313 71.17 41.36-0.233-82.315-71.17-41.36z" fill="#DBD9D6"/>
				<path d="m216.39 265.22v-0.137l72.234-41.705 0.355-0.206 0.236 83.276v0.138l-72.233 41.704-0.357 0.205-0.24-83.28zm72.12-41.22l-71.642 41.361 0.235 82.317 71.64-41.361-0.23-82.32z" fill="#DBD9D6"/>
				<path d="m145.1 306.66l-0.118-0.068-0.235-83.001-0.001-0.414 72.004 41.844 0.118 0.069 0.236 83.001v0.415l-72-41.84zm0.12-82.66l0.232 82.314 71.17 41.359-0.234-82.314-71.17-41.36z" fill="#DBD9D6"/>
				<path d="m144.51 223.58l72.469-41.841 0.12-0.069 72.121 41.911-72.471 41.842-0.12 0.069-72.12-41.91zm72.59-41.36l-71.641 41.361 71.172 41.36 71.641-41.361-71.17-41.36z" fill="#DBD9D6"/>
	</g>
	<g opacity=".4">
				<path d="m0.879 140.84l-0.001-0.138 72.233-41.705 0.356-0.205 0.236 83.275v0.138l-72.591 41.91-0.233-83.27zm72.116-41.231l-71.64 41.362 0.231 82.317 71.642-41.362-0.233-82.321z" fill="#DBD9D6"/>
				<path d="m0.876 223.7l72.471-41.84 0.119-0.069 72.119 41.911-72.469 41.841-0.119 0.069-72.116-41.91zm72.589-41.36l-71.641 41.36 71.173 41.361 71.641-41.361-71.175-41.36z" fill="#DBD9D6"/>
				<path d="m73.347 182.27l-0.118-0.068-0.235-83.002-0.001-0.415 72.005 41.845 0.118 0.068 0.234 83.002 0.002 0.414-72.003-41.84zm0.123-82.657l0.233 82.314 71.17 41.359-0.233-82.314-71.17-41.367z" fill="#DBD9D6"/>
				<path d="m72.524 182.47v-0.137l72.59-41.91 0.235 83.275 0.001 0.138-72.234 41.704-0.356 0.206-0.226-83.28zm72.116-41.22l-71.641 41.361 0.232 82.317 71.64-41.362-0.23-82.32z" fill="#DBD9D6"/>
				<path d="m1.232 223.9l-0.119-0.069-0.233-83.001-0.001-0.415 72.004 41.844 0.117 0.069 0.236 83.001 0.001 0.414-72.005-41.84zm0.123-82.65l0.233 82.314 71.168 41.359-0.232-82.314-71.169-41.36z" fill="#DBD9D6"/>
				<path d="m0.643 140.83l72.469-41.842 0.12-0.069 72.12 41.912-72.47 41.842-0.121 0.069-72.116-41.91zm72.587-41.356l-71.64 41.361 71.172 41.36 71.641-41.361-71.17-41.366z" fill="#DBD9D6"/>
	</g>
	<g opacity=".4">
				<path d="m0.879 58.345l-0.001-0.137 72.233-41.704 0.356-0.205 0.236 83.276v0.137l-72.591 41.91-0.233-83.275zm72.116-41.224l-71.64 41.361 0.231 82.317 71.642-41.361-0.233-82.318z" fill="#DBD9D6"/>
				<path d="m0.876 141.21l72.471-41.841 0.119-0.069 72.119 41.912-72.469 41.841-0.119 0.069-72.116-41.91zm72.589-41.361l-71.641 41.361 71.173 41.361 71.641-41.361-71.175-41.361z" fill="#DBD9D6"/>
				<path d="m73.347 99.78l-0.118-0.069-0.236-83.001-0.001-0.415 72.005 41.845 0.118 0.068 0.234 83.002 0.002 0.414-72.003-41.84zm0.123-82.656l0.233 82.314 71.17 41.359-0.233-82.314-71.17-41.362z" fill="#DBD9D6"/>
				<path d="m106.6 129.26l-0.001-0.138 72.591-41.91 0.235 83.276 0.001 0.138-72.234 41.704-0.355 0.205-0.24-83.28zm72.11-41.221l-71.64 41.362 0.233 82.317 71.641-41.362-0.23-82.321z" fill="#DBD9D6"/>
				<path d="m1.232 141.42l-0.119-0.069-0.234-83.005-0.001-0.415 72.004 41.845 0.117 0.069 0.236 83.001 0.001 0.415-72.004-41.84zm0.123-82.661l0.233 82.314 71.168 41.36-0.232-82.314-71.169-41.361z" fill="#DBD9D6"/>
				<path d="m0.643 58.344l72.469-41.841 0.12-0.069 72.12 41.911-72.47 41.841-0.121 0.07-72.116-41.916zm72.587-41.36l-71.64 41.36 71.172 41.362 71.641-41.362-71.17-41.36z" fill="#DBD9D6"/>
	</g>
	<g opacity=".4">
				<path d="m575.54 638.17l-0.001-0.138 72.233-41.705 0.357-0.205 0.236 83.275v0.138l-72.591 41.91-0.24-83.28zm72.12-41.23l-71.64 41.362 0.231 82.317 71.642-41.362-0.23-82.32z" fill="#DBD9D6"/>
				<path d="m575.54 721.03l72.471-41.84 0.119-0.069 72.119 41.911-72.469 41.841-0.119 0.069-72.12-41.91zm72.59-41.36l-71.641 41.361 71.173 41.361 71.641-41.361-71.17-41.36z" fill="#DBD9D6"/>
				<path d="m648.01 679.6l-0.118-0.068-0.235-83.002-0.001-0.415 72.005 41.845 0.118 0.068 0.234 83.002 0.002 0.414-72-41.84zm0.13-82.65l0.233 82.314 71.17 41.359-0.233-82.315-71.17-41.35z" fill="#DBD9D6"/>
				<path d="m647.19 679.8v-0.137l72.59-41.91 0.235 83.275 0.001 0.138-72.234 41.704-0.355 0.206-0.25-83.27zm72.12-41.22l-71.641 41.361 0.232 82.317 71.64-41.362-0.23-82.32z" fill="#DBD9D6"/>
				<path d="m575.9 721.24l-0.119-0.069-0.233-83.001-0.001-0.414 72.004 41.844 0.117 0.069 0.236 83.001 0.001 0.414-72.01-41.84zm0.12-82.66l0.233 82.314 71.168 41.359-0.232-82.314-71.17-41.36z" fill="#DBD9D6"/>
				<path d="m575.31 638.17l72.469-41.842 0.12-0.069 72.12 41.912-72.47 41.842-0.121 0.069-72.12-41.91zm72.59-41.36l-71.64 41.361 71.172 41.36 71.641-41.361-71.17-41.36z" fill="#DBD9D6"/>
	</g>
	<g opacity=".4">
				<path d="m718.88 638.01l-0.001-0.137 72.233-41.704 0.356-0.205 0.236 83.276v0.137l-72.591 41.91-0.24-83.28zm72.12-41.22l-71.64 41.361 0.231 82.317 71.642-41.361-0.23-82.32z" fill="#DBD9D6"/>
				<path d="m718.88 720.88l72.471-41.841 0.119-0.069 72.119 41.912-72.469 41.841-0.119 0.069-72.12-41.91zm72.58-41.36l-71.641 41.362 71.173 41.361 71.641-41.361-71.17-41.36z" fill="#DBD9D6"/>
				<path d="m791.35 679.45l-0.118-0.069-0.235-83.002-0.001-0.414 72.005 41.845 0.118 0.068 0.234 83.002 0.002 0.414-72-41.85zm0.12-82.66l0.233 82.314 71.17 41.359-0.233-82.314-71.17-41.36z" fill="#DBD9D6"/>
				<path d="m811.6 603.6l-0.001-0.138 72.591-41.91 0.235 83.276 0.001 0.138-72.234 41.704-0.355 0.205-0.24-83.28zm72.11-41.23l-71.64 41.362 0.233 82.317 71.641-41.362-0.23-82.32z" fill="#DBD9D6"/>
				<path d="m719.23 721.08l-0.119-0.069-0.233-83.002-0.001-0.415 72.004 41.845 0.117 0.069 0.236 83.001 0.001 0.415-72.01-41.84zm0.13-82.66l0.233 82.314 71.168 41.36-0.232-82.315-71.17-41.36z" fill="#DBD9D6"/>
				<path d="m718.64 638.01l72.469-41.841 0.12-0.069 72.12 41.911-72.47 41.841-0.121 0.07-72.12-41.91zm72.59-41.36l-71.64 41.36 71.172 41.362 71.641-41.362-71.17-41.36z" fill="#DBD9D6"/>
	</g>
	<g opacity=".4">
				<path d="m503.88 98.585l-0.001-0.137 72.59-41.91 0.236 83.276v0.137l-72.589 41.91-0.24-83.275zm72.12-41.224l-71.641 41.361 0.234 82.316 71.64-41.361-0.23-82.319z" fill="#DBD9D6"/>
				<path d="m503.88 181.45l72.47-41.842 0.119-0.068 72.122 41.912-72.472 41.84-0.119 0.069-72.12-41.91zm72.59-41.36l-71.641 41.361 71.173 41.361 71.641-41.361-71.17-41.36z" fill="#DBD9D6"/>
				<path d="m576.35 140.02l-0.117-0.069-0.237-83.415 72.005 41.844 0.118 0.068 0.236 83.416-72.01-41.84zm0.13-82.656l0.233 82.313 71.17 41.36-0.232-82.315-71.17-41.361z" fill="#DBD9D6"/>
				<path d="m575.53 140.22l-0.001-0.137 72.59-41.91 0.236 83.276 0.001 0.138-72.591 41.909-0.24-83.28zm72.12-41.223l-71.641 41.361 0.232 82.317 71.641-41.361-0.23-82.323z" fill="#DBD9D6"/>
				<path d="m503.65 98.584l72.471-41.841 0.12-0.069 72.12 41.911-72.471 41.842-0.12 0.069-72.12-41.916zm72.59-41.359l-71.641 41.361 71.172 41.36 71.641-41.361-71.17-41.364z" fill="#DBD9D6"/>
				<path d="m481.34 126.12l-0.118-0.069-0.236-83.416 72.005 41.844 0.117 0.068 0.237 83.417-72-41.84zm0.13-82.661l0.231 82.314 71.171 41.359-0.233-82.314-71.17-41.357z" fill="#DBD9D6"/>
	</g>
</svg>
